<svg width="24" height="24" viewBox="0 0 24 24" fill="none" xmlns="http://www.w3.org/2000/svg">
<path d="M21.6328 7.64689C21.3187 6.91947 20.8657 6.2603 20.2992 5.70626C19.7323 5.15058 19.064 4.70898 18.3305 4.40548C17.5699 4.08953 16.7541 3.92781 15.9305 3.9297C14.775 3.9297 13.6477 4.24611 12.668 4.84376C12.4336 4.98673 12.2109 5.14376 12 5.31486C11.7891 5.14376 11.5664 4.98673 11.332 4.84376C10.3523 4.24611 9.225 3.9297 8.06953 3.9297C7.2375 3.9297 6.43125 4.08908 5.66953 4.40548C4.93359 4.71017 4.27031 5.14845 3.70078 5.70626C3.13359 6.25967 2.6805 6.919 2.36719 7.64689C2.04141 8.40392 1.875 9.20782 1.875 10.0352C1.875 10.8156 2.03438 11.6289 2.35078 12.4563C2.61563 13.1477 2.99531 13.8648 3.48047 14.5891C4.24922 15.7352 5.30625 16.9305 6.61875 18.1422C8.79375 20.1508 10.9477 21.5383 11.0391 21.5945L11.5945 21.9508C11.8406 22.1078 12.157 22.1078 12.4031 21.9508L12.9586 21.5945C13.05 21.5359 15.2016 20.1508 17.3789 18.1422C18.6914 16.9305 19.7484 15.7352 20.5172 14.5891C21.0023 13.8648 21.3844 13.1477 21.6469 12.4563C21.9633 11.6289 22.1227 10.8156 22.1227 10.0352C22.125 9.20782 21.9586 8.40392 21.6328 7.64689V7.64689ZM12 20.0969C12 20.0969 3.65625 14.7508 3.65625 10.0352C3.65625 7.64689 5.63203 5.71095 8.06953 5.71095C9.78281 5.71095 11.2687 6.6672 12 8.06407C12.7313 6.6672 14.2172 5.71095 15.9305 5.71095C18.368 5.71095 20.3438 7.64689 20.3438 10.0352C20.3438 14.7508 12 20.0969 12 20.0969Z" fill="#666666"/>
</svg>
