<svg width="196" height="78" viewBox="0 0 196 78" fill="none" xmlns="http://www.w3.org/2000/svg">
<path d="M57.3018 18.1533C57.3018 18.4951 57.1764 18.8027 56.9258 19.0762C56.6979 19.3496 56.4017 19.4863 56.0371 19.4863C55.6953 19.4863 55.3991 19.3724 55.1484 19.1445C54.8978 18.9167 54.7497 18.609 54.7041 18.2217C54.6813 18.1305 54.6243 17.6976 54.5332 16.9229C54.4648 16.1481 54.237 15.2025 53.8496 14.0859C53.485 12.9466 52.9154 11.7389 52.1406 10.4629C51.3659 9.16406 50.2949 7.96777 48.9277 6.87402C47.5833 5.78027 45.8743 4.86882 43.8008 4.13965C41.7272 3.41048 39.2093 3.0459 36.2471 3.0459C33.6266 3.0459 30.9834 3.44466 28.3174 4.24219C25.6742 5.01693 23.1335 6.12207 20.6953 7.55762C18.2572 8.97038 15.9785 10.668 13.8594 12.6504C11.7402 14.61 9.89453 16.7747 8.32227 19.1445C6.77279 21.5143 5.54232 24.0436 4.63086 26.7324C3.74219 29.4212 3.29785 32.1898 3.29785 35.0381C3.29785 37.613 3.65104 39.8232 4.35742 41.6689C5.0638 43.4919 6.04362 44.9844 7.29688 46.1465C8.55013 47.3086 10.0199 48.1631 11.7061 48.71C13.415 49.234 15.2493 49.4961 17.209 49.4961C20.6042 49.4961 23.7715 48.915 26.7109 47.7529C29.6732 46.568 32.4076 44.9844 34.9141 43.002C37.4434 40.9967 39.7448 38.6725 41.8184 36.0293C43.8919 33.3633 45.749 30.5605 47.3896 27.6211C47.5719 24.8411 47.891 22.722 48.3467 21.2637C48.8252 19.7826 49.5316 19.042 50.4658 19.042C50.9899 19.042 51.4229 19.2585 51.7646 19.6914C52.1292 20.1243 52.3115 20.6826 52.3115 21.3662C52.3115 22.1182 52.1178 23.0752 51.7305 24.2373C51.3431 25.3994 50.7507 26.7438 49.9531 28.2705C49.8848 29.3415 49.8506 30.4922 49.8506 31.7227C49.8506 33.5228 49.9189 35.4938 50.0557 37.6357C50.2152 39.7777 50.4544 42.0563 50.7734 44.4717C51.7305 43.9932 52.471 43.6514 52.9951 43.4463C53.542 43.2184 53.9408 43.0703 54.1914 43.002C54.4421 42.9108 54.6016 42.8766 54.6699 42.8994C54.7383 42.8994 54.7952 42.8994 54.8408 42.8994C55.1826 42.8994 55.4788 43.0247 55.7295 43.2754C56.0029 43.5033 56.1396 43.8109 56.1396 44.1982C56.1396 44.4717 56.0599 44.7223 55.9004 44.9502C55.7409 45.1553 55.5244 45.3034 55.251 45.3945C55.2054 45.4173 54.8066 45.5768 54.0547 45.873C53.3255 46.1465 52.3457 46.5908 51.1152 47.2061C51.2292 48.4365 51.3203 49.6784 51.3887 50.9316C51.457 52.1849 51.4912 53.4495 51.4912 54.7256C51.4912 57.7334 51.2747 60.6045 50.8418 63.3389C50.4089 66.0732 49.6911 68.4772 48.6885 70.5508C47.7087 72.6243 46.3984 74.265 44.7578 75.4727C43.1172 76.7031 41.1006 77.3184 38.708 77.3184C37.5231 77.3184 36.4294 77.1133 35.4268 76.7031C34.4242 76.293 33.5583 75.7233 32.8291 74.9941C32.0999 74.265 31.5303 73.3877 31.1201 72.3623C30.71 71.3597 30.5049 70.2546 30.5049 69.0469C30.5049 67.3379 30.7897 65.6517 31.3594 63.9883C31.9518 62.3249 32.7266 60.7184 33.6836 59.1689C34.6634 57.6195 35.7799 56.1497 37.0332 54.7598C38.2865 53.3926 39.5739 52.1279 40.8955 50.9658C42.2171 49.8037 43.516 48.7783 44.792 47.8896C46.0908 47.001 47.2757 46.2832 48.3467 45.7363C48.0505 43.4577 47.8112 41.2246 47.6289 39.0371C47.4466 36.8268 47.3327 34.6849 47.2871 32.6113C45.3047 35.7786 43.1172 38.57 40.7246 40.9854C38.3548 43.4007 35.8711 45.4287 33.2734 47.0693C30.6758 48.71 27.9984 49.9518 25.2412 50.7949C22.5068 51.6152 19.7839 52.0254 17.0723 52.0254C14.6113 52.0254 12.3783 51.6608 10.373 50.9316C8.36784 50.1797 6.64746 49.0859 5.21191 47.6504C3.77637 46.2148 2.67122 44.4375 1.89648 42.3184C1.12174 40.1992 0.734375 37.7611 0.734375 35.0039C0.734375 32.0872 1.1901 29.2161 2.10156 26.3906C3.01302 23.5423 4.27767 20.8421 5.89551 18.29C7.51335 15.7152 9.42741 13.3454 11.6377 11.1807C13.8708 9.01595 16.2975 7.14746 18.918 5.5752C21.5612 3.98014 24.3411 2.73828 27.2578 1.84961C30.1973 0.938151 33.1937 0.482422 36.2471 0.482422C39.1865 0.482422 41.7386 0.824219 43.9033 1.50781C46.068 2.16862 47.9023 3.02311 49.4062 4.07129C50.9329 5.09668 52.1634 6.22461 53.0977 7.45508C54.0547 8.66276 54.8066 9.81348 55.3535 10.9072C55.8092 11.8415 56.1624 12.7415 56.4131 13.6074C56.6865 14.4733 56.8802 15.2367 56.9941 15.8975C57.1309 16.5583 57.2106 17.0938 57.2334 17.5039C57.279 17.9141 57.3018 18.1305 57.3018 18.1533ZM48.6543 48.5732C47.515 49.2113 46.3301 49.9746 45.0996 50.8633C43.8919 51.7292 42.707 52.6862 41.5449 53.7344C40.4056 54.7826 39.3232 55.9105 38.2979 57.1182C37.2725 58.3258 36.3724 59.5791 35.5977 60.8779C34.8229 62.1768 34.2077 63.5098 33.752 64.877C33.319 66.2669 33.1025 67.6569 33.1025 69.0469C33.1025 69.9128 33.2393 70.6875 33.5127 71.3711C33.7861 72.0775 34.1735 72.6699 34.6748 73.1484C35.1761 73.6497 35.7686 74.0371 36.4521 74.3105C37.1357 74.584 37.8877 74.7207 38.708 74.7207C41.9209 74.7207 44.4274 73.0117 46.2275 69.5938C48.0277 66.1986 48.9277 61.2311 48.9277 54.6914C48.9277 53.7116 48.9049 52.709 48.8594 51.6836C48.8138 50.681 48.7454 49.6442 48.6543 48.5732ZM71.1035 47.2402C71.582 47.901 72.1973 48.4365 72.9492 48.8467C73.7012 49.234 74.624 49.4277 75.7178 49.4277C76.8343 49.4277 77.8483 49.1657 78.7598 48.6416C79.6712 48.0947 80.5029 47.3883 81.2549 46.5225C82.0068 45.6566 82.679 44.6882 83.2715 43.6172C83.8639 42.5462 84.3994 41.4753 84.8779 40.4043C84.9919 40.1536 85.1514 39.9714 85.3564 39.8574C85.5615 39.7207 85.7894 39.6523 86.04 39.6523C86.4274 39.6523 86.735 39.7891 86.9629 40.0625C87.2135 40.3359 87.3389 40.6322 87.3389 40.9512C87.3389 41.0651 87.3275 41.1676 87.3047 41.2588C87.2819 41.3271 87.2477 41.4069 87.2021 41.498C85.6299 44.9616 83.9095 47.5706 82.041 49.3252C80.1953 51.0798 78.099 51.9798 75.752 52.0254C74.248 52.0254 72.9492 51.7292 71.8555 51.1367C70.7617 50.5671 69.8617 49.8265 69.1553 48.915C68.4489 47.9808 67.9248 46.9326 67.583 45.7705C67.2412 44.6084 67.0703 43.4463 67.0703 42.2842C67.0703 41.1221 67.207 40.0511 67.4805 39.0713C67.7767 38.0915 68.1868 37.237 68.7109 36.5078C69.2578 35.7786 69.8958 35.209 70.625 34.7988C71.377 34.3887 72.1973 34.1836 73.0859 34.1836C73.61 34.1836 74.1227 34.2975 74.624 34.5254C75.1481 34.7305 75.6152 35.0381 76.0254 35.4482C76.4355 35.8356 76.766 36.3141 77.0166 36.8838C77.2673 37.4535 77.3926 38.1029 77.3926 38.832C77.3926 39.7663 77.2331 40.6436 76.9141 41.4639C76.5951 42.2842 76.1507 43.0475 75.5811 43.7539C75.0342 44.4603 74.3734 45.1097 73.5986 45.7021C72.8239 46.2946 71.9922 46.8073 71.1035 47.2402ZM70.0781 45.0186C70.7845 44.7223 71.4225 44.3464 71.9922 43.8906C72.5846 43.4349 73.0859 42.9336 73.4961 42.3867C73.9062 41.8398 74.2253 41.2702 74.4531 40.6777C74.681 40.0625 74.7949 39.4473 74.7949 38.832C74.7949 38.1484 74.624 37.6357 74.2822 37.2939C73.9404 36.9294 73.5417 36.7471 73.0859 36.7471C72.4707 36.7471 71.9466 36.918 71.5137 37.2598C71.0807 37.6016 70.7275 38.0459 70.4541 38.5928C70.1807 39.1396 69.9756 39.7549 69.8389 40.4385C69.7249 41.0993 69.668 41.7601 69.668 42.4209C69.668 42.8311 69.7021 43.264 69.7705 43.7197C69.8617 44.1755 69.9642 44.6084 70.0781 45.0186ZM111.36 41.5322C111.11 42.0563 110.791 42.6829 110.403 43.4121C110.039 44.1185 109.617 44.859 109.139 45.6338C108.66 46.4085 108.125 47.1833 107.532 47.958C106.94 48.71 106.29 49.3936 105.584 50.0088C104.9 50.6012 104.16 51.0798 103.362 51.4443C102.588 51.8317 101.756 52.0254 100.867 52.0254C99.5 52.0254 98.3265 51.6038 97.3467 50.7607C96.3669 49.9176 95.5352 48.8125 94.8516 47.4453C94.168 46.0781 93.6097 44.5286 93.1768 42.7969C92.7666 41.0423 92.4476 39.265 92.2197 37.4648C91.9919 35.6419 91.8324 33.876 91.7412 32.167C91.6729 30.458 91.6387 28.9427 91.6387 27.6211C91.6387 25.707 91.6956 23.7246 91.8096 21.6738C91.9463 19.623 92.1514 17.6178 92.4248 15.6582C92.6982 13.6986 93.04 11.8415 93.4502 10.0869C93.8831 8.33236 94.3844 6.79427 94.9541 5.47266C95.5465 4.15104 96.2188 3.10286 96.9707 2.32812C97.7227 1.55339 98.5771 1.16602 99.5342 1.16602C100.286 1.16602 100.958 1.34831 101.551 1.71289C102.166 2.05469 102.679 2.62435 103.089 3.42188C103.499 4.2194 103.818 5.25618 104.046 6.53223C104.274 7.80827 104.388 9.36914 104.388 11.2148C104.388 13.4935 104.148 15.8519 103.67 18.29C103.191 20.7054 102.542 23.1436 101.722 25.6045C100.901 28.0654 99.9329 30.5264 98.8164 32.9873C97.6999 35.4255 96.5036 37.8066 95.2275 40.1309C95.7972 43.0247 96.5605 45.3034 97.5176 46.9668C98.4746 48.6074 99.6253 49.4277 100.97 49.4277C101.881 49.4277 102.758 49.0745 103.602 48.3682C104.445 47.639 105.219 46.7845 105.926 45.8047C106.632 44.8249 107.247 43.8337 107.771 42.8311C108.318 41.8057 108.74 40.9854 109.036 40.3701C109.15 40.1423 109.31 39.9714 109.515 39.8574C109.72 39.7207 109.948 39.6523 110.198 39.6523C110.586 39.6523 110.893 39.7891 111.121 40.0625C111.372 40.3359 111.497 40.6436 111.497 40.9854C111.497 41.1221 111.451 41.3044 111.36 41.5322ZM94.2363 27.792C94.2363 29.2503 94.2705 30.6517 94.3389 31.9961C94.4072 33.3405 94.4984 34.6279 94.6123 35.8584C95.5693 34.0127 96.4808 32.0531 97.3467 29.9795C98.2126 27.8831 98.9759 25.7754 99.6367 23.6562C100.298 21.5143 100.822 19.3952 101.209 17.2988C101.619 15.1797 101.824 13.1631 101.824 11.249C101.824 8.56022 101.608 6.63477 101.175 5.47266C100.742 4.31055 100.161 3.72949 99.4316 3.72949C98.9531 3.72949 98.486 4.0599 98.0303 4.7207C97.5973 5.38151 97.1872 6.28158 96.7998 7.4209C96.4124 8.56022 96.0592 9.90462 95.7402 11.4541C95.4212 13.0036 95.1478 14.667 94.9199 16.4443C94.7148 18.2217 94.5439 20.0788 94.4072 22.0156C94.2933 23.9525 94.2363 25.8779 94.2363 27.792ZM142.491 41.4639C142.4 41.6462 142.206 42.0335 141.91 42.626C141.637 43.1956 141.272 43.8564 140.816 44.6084C140.383 45.3604 139.871 46.1465 139.278 46.9668C138.686 47.7871 138.025 48.5391 137.296 49.2227C136.567 49.9062 135.781 50.4759 134.938 50.9316C134.094 51.3646 133.206 51.5811 132.271 51.5811C130.95 51.5811 129.833 51.1595 128.922 50.3164C128.033 49.4733 127.384 48.4137 126.974 47.1377C126.199 48.4365 125.276 49.4733 124.205 50.248C123.134 51 122.063 51.376 120.992 51.376C120.149 51.376 119.386 51.2279 118.702 50.9316C118.019 50.6126 117.438 50.1797 116.959 49.6328C116.48 49.0632 116.104 48.4023 115.831 47.6504C115.58 46.8984 115.455 46.0781 115.455 45.1895C115.455 43.4121 115.751 41.8512 116.344 40.5068C116.959 39.1396 117.734 38.0003 118.668 37.0889C119.602 36.1774 120.628 35.4938 121.744 35.0381C122.883 34.5824 123.977 34.3545 125.025 34.3545C125.732 34.3545 126.381 34.457 126.974 34.6621C127.566 34.8444 128.067 35.0495 128.478 35.2773C128.91 35.5052 129.241 35.7217 129.469 35.9268C129.697 36.109 129.822 36.2116 129.845 36.2344C130.095 36.5306 130.221 36.8382 130.221 37.1572C130.221 37.499 130.095 37.8066 129.845 38.0801C129.594 38.3307 129.298 38.4561 128.956 38.4561C128.591 38.4561 128.284 38.3307 128.033 38.0801C127.988 38.0345 127.885 37.9548 127.726 37.8408C127.566 37.7041 127.35 37.5674 127.076 37.4307C126.803 37.2939 126.472 37.18 126.085 37.0889C125.72 36.9749 125.299 36.918 124.82 36.918C124.114 36.918 123.362 37.0775 122.564 37.3965C121.767 37.7155 121.038 38.2168 120.377 38.9004C119.716 39.5612 119.158 40.4043 118.702 41.4297C118.269 42.4323 118.053 43.6286 118.053 45.0186C118.053 45.4515 118.098 45.8958 118.189 46.3516C118.281 46.7845 118.44 47.1833 118.668 47.5479C118.896 47.9124 119.203 48.2087 119.591 48.4365C119.978 48.6644 120.457 48.7783 121.026 48.7783C121.437 48.7783 121.904 48.6416 122.428 48.3682C122.975 48.0947 123.487 47.6732 123.966 47.1035C124.467 46.5339 124.911 45.8161 125.299 44.9502C125.709 44.0843 125.994 43.0589 126.153 41.874C126.199 41.555 126.347 41.293 126.598 41.0879C126.848 40.86 127.145 40.7461 127.486 40.7461C127.805 40.7461 128.079 40.8714 128.307 41.1221C128.557 41.3727 128.694 41.6576 128.717 41.9766C128.74 42.4095 128.785 43.0247 128.854 43.8223C128.922 44.597 129.07 45.3717 129.298 46.1465C129.549 46.9212 129.913 47.5934 130.392 48.1631C130.87 48.7327 131.531 49.0176 132.374 49.0176C132.921 49.0176 133.456 48.8695 133.98 48.5732C134.527 48.277 135.051 47.8896 135.553 47.4111C136.077 46.9098 136.567 46.3516 137.022 45.7363C137.501 45.0983 137.934 44.4603 138.321 43.8223C138.709 43.1842 139.05 42.569 139.347 41.9766C139.643 41.3841 139.894 40.8714 140.099 40.4385C140.213 40.1878 140.372 39.9941 140.577 39.8574C140.805 39.7207 141.044 39.6523 141.295 39.6523C141.682 39.6523 141.99 39.8005 142.218 40.0967C142.468 40.3701 142.594 40.6663 142.594 40.9854C142.594 41.1449 142.56 41.3044 142.491 41.4639ZM174.818 16.7861C174.818 17.1507 174.693 17.4469 174.442 17.6748C174.192 17.8799 173.884 17.9824 173.52 17.9824H156.19V18.3584C156.19 19.7484 156.088 21.2295 155.883 22.8018C155.678 24.374 155.393 25.9463 155.028 27.5186C154.687 29.068 154.288 30.5833 153.832 32.0645C153.399 33.5456 152.943 34.9128 152.465 36.166C152.009 37.4193 151.553 38.513 151.098 39.4473C150.642 40.3587 150.232 41.0423 149.867 41.498C150.163 42.5462 150.517 43.526 150.927 44.4375C151.337 45.3262 151.793 46.1123 152.294 46.7959C152.818 47.4567 153.376 47.9808 153.969 48.3682C154.561 48.7555 155.199 48.9492 155.883 48.9492C156.68 48.9492 157.466 48.6188 158.241 47.958C159.039 47.2744 159.768 46.4769 160.429 45.5654C161.112 44.6312 161.705 43.6969 162.206 42.7627C162.73 41.8057 163.106 41.0423 163.334 40.4727C163.562 39.9258 163.961 39.6523 164.53 39.6523C164.918 39.6523 165.225 39.7891 165.453 40.0625C165.704 40.3359 165.829 40.6322 165.829 40.9512C165.829 41.1107 165.795 41.2702 165.727 41.4297C165.658 41.5892 165.487 41.9538 165.214 42.5234C164.963 43.0931 164.621 43.7539 164.188 44.5059C163.778 45.2578 163.288 46.0553 162.719 46.8984C162.172 47.7188 161.545 48.4707 160.839 49.1543C160.155 49.8379 159.415 50.4076 158.617 50.8633C157.82 51.319 156.977 51.5469 156.088 51.5469C154.516 51.5469 153.103 51.0342 151.85 50.0088C150.596 48.9834 149.525 47.5479 148.637 45.7021C147.771 43.8564 147.11 41.6689 146.654 39.1396C146.199 36.6104 145.971 33.8418 145.971 30.834C145.971 30.082 145.982 29.2048 146.005 28.2021C146.028 27.1768 146.073 26.1058 146.142 24.9893C146.21 23.8499 146.312 22.6878 146.449 21.5029C146.586 20.2952 146.768 19.1217 146.996 17.9824H134.726C134.361 17.9824 134.053 17.8799 133.803 17.6748C133.552 17.4469 133.427 17.1507 133.427 16.7861C133.427 16.4215 133.552 16.1367 133.803 15.9316C134.053 15.7038 134.361 15.5898 134.726 15.5898H147.577C147.805 14.7695 148.067 14.0176 148.363 13.334C148.682 12.6504 149.035 12.0579 149.423 11.5566C149.833 11.0553 150.277 10.668 150.756 10.3945C151.257 10.0983 151.804 9.9502 152.396 9.9502C152.966 9.9502 153.456 10.0983 153.866 10.3945C154.299 10.668 154.664 11.0553 154.96 11.5566C155.256 12.0579 155.484 12.6504 155.644 13.334C155.826 14.0176 155.963 14.7695 156.054 15.5898H173.52C173.884 15.5898 174.192 15.7038 174.442 15.9316C174.693 16.1367 174.818 16.4215 174.818 16.7861ZM149.081 38.0801C149.765 36.5762 150.38 34.9583 150.927 33.2266C151.496 31.472 151.975 29.7061 152.362 27.9287C152.772 26.1514 153.08 24.4082 153.285 22.6992C153.513 20.9902 153.627 19.418 153.627 17.9824H149.594C149.275 19.3952 149.013 21.1497 148.808 23.2461C148.625 25.3197 148.534 27.849 148.534 30.834C148.534 32.4974 148.58 33.8988 148.671 35.0381C148.762 36.1546 148.899 37.1686 149.081 38.0801ZM152.26 12.5137C152.055 12.5137 151.758 12.7415 151.371 13.1973C150.984 13.6302 150.596 14.4277 150.209 15.5898H153.49C153.376 14.6328 153.205 13.8809 152.978 13.334C152.772 12.7871 152.533 12.5137 152.26 12.5137ZM149.628 40.541V40.5752V40.541ZM186.228 47.2402C185.658 47.2402 185.157 47.1947 184.724 47.1035C184.382 47.7871 183.972 48.4251 183.493 49.0176C183.015 49.5872 182.456 50.0885 181.818 50.5215C181.203 50.9544 180.508 51.2962 179.733 51.5469C178.959 51.7975 178.116 51.9229 177.204 51.9229C176.133 51.9229 175.153 51.7292 174.265 51.3418C173.376 50.9772 172.601 50.4645 171.94 49.8037C171.28 49.1201 170.767 48.3112 170.402 47.377C170.038 46.4199 169.855 45.3717 169.855 44.2324C169.855 42.7741 170.118 41.5094 170.642 40.4385C171.166 39.3447 171.77 38.4447 172.453 37.7383C173.137 37.0091 173.82 36.4736 174.504 36.1318C175.188 35.7673 175.7 35.585 176.042 35.585C176.429 35.585 176.714 35.6875 176.896 35.8926C177.102 36.0977 177.204 36.3711 177.204 36.7129C177.204 37.1003 177.079 37.3965 176.828 37.6016C176.6 37.7839 176.304 37.9661 175.939 38.1484C175.575 38.3307 175.188 38.5928 174.777 38.9346C174.367 39.2536 173.98 39.6637 173.615 40.165C173.273 40.6663 172.989 41.2588 172.761 41.9424C172.533 42.626 172.419 43.3893 172.419 44.2324C172.419 44.9844 172.533 45.6908 172.761 46.3516C172.989 46.9896 173.319 47.5479 173.752 48.0264C174.185 48.4821 174.698 48.8467 175.29 49.1201C175.882 49.3708 176.543 49.4961 177.272 49.4961C178.571 49.4961 179.642 49.1999 180.485 48.6074C181.351 47.9922 182.012 47.2174 182.468 46.2832C181.123 45.5768 180.018 44.5742 179.152 43.2754C178.286 41.9766 177.854 40.5182 177.854 38.9004C177.854 37.6016 178.161 36.542 178.776 35.7217C179.414 34.9014 180.246 34.4912 181.271 34.4912C181.887 34.4912 182.468 34.6393 183.015 34.9355C183.562 35.2318 184.04 35.6989 184.45 36.3369C184.883 36.9749 185.225 37.7952 185.476 38.7979C185.726 39.8005 185.852 40.9967 185.852 42.3867C185.852 43.1159 185.76 43.8792 185.578 44.6768C185.715 44.6995 185.852 44.7109 185.988 44.7109C186.125 44.7109 186.273 44.7109 186.433 44.7109C187.207 44.7109 187.902 44.6198 188.518 44.4375C189.133 44.2552 189.691 43.9818 190.192 43.6172C190.694 43.2526 191.138 42.7855 191.525 42.2158C191.936 41.6462 192.323 40.9854 192.688 40.2334C192.756 40.0967 192.904 39.9714 193.132 39.8574C193.36 39.7207 193.588 39.6523 193.815 39.6523C194.112 39.6523 194.385 39.7777 194.636 40.0283C194.909 40.2562 195.046 40.5638 195.046 40.9512C195.046 41.1335 195 41.3385 194.909 41.5664C194.818 41.7715 194.727 41.9652 194.636 42.1475C194.248 42.8311 193.793 43.4919 193.269 44.1299C192.767 44.7451 192.163 45.292 191.457 45.7705C190.773 46.2262 189.999 46.5908 189.133 46.8643C188.267 47.1377 187.299 47.263 186.228 47.2402ZM180.383 38.627C180.383 39.0599 180.44 39.5156 180.554 39.9941C180.668 40.4727 180.839 40.9512 181.066 41.4297C181.317 41.8854 181.613 42.3298 181.955 42.7627C182.32 43.1729 182.741 43.526 183.22 43.8223C183.288 43.3438 183.322 42.8766 183.322 42.4209C183.322 41.8057 183.277 41.179 183.186 40.541C183.094 39.903 182.958 39.3219 182.775 38.7979C182.616 38.251 182.411 37.818 182.16 37.499C181.91 37.1572 181.613 36.9863 181.271 36.9863C181.135 36.9863 180.952 37.0889 180.725 37.2939C180.497 37.499 180.383 37.9434 180.383 38.627Z" fill="black"/>
</svg>
